<mxfile host="app.diagrams.net" modified="2021-10-14T05:43:38.712Z" agent="5.0 (Windows NT 10.0; Win64; x64) AppleWebKit/537.36 (KHTML, like Gecko) Chrome/94.0.4606.81 Safari/537.36" etag="4rkv8XPYPag66EE3v6Dn" version="15.3.0" type="github">
  <diagram id="C5RBs43oDa-KdzZeNtuy" name="Page-1">
    <mxGraphModel dx="1422" dy="762" grid="1" gridSize="10" guides="1" tooltips="1" connect="1" arrows="1" fold="1" page="1" pageScale="1" pageWidth="1169" pageHeight="1654" math="0" shadow="0">
      <root>
        <mxCell id="WIyWlLk6GJQsqaUBKTNV-0" />
        <mxCell id="WIyWlLk6GJQsqaUBKTNV-1" parent="WIyWlLk6GJQsqaUBKTNV-0" />
        <mxCell id="WIyWlLk6GJQsqaUBKTNV-2" value="" style="rounded=0;html=1;jettySize=auto;orthogonalLoop=1;fontSize=11;endArrow=block;endFill=0;endSize=8;strokeWidth=1;shadow=0;labelBackgroundColor=none;edgeStyle=orthogonalEdgeStyle;" parent="WIyWlLk6GJQsqaUBKTNV-1" source="WIyWlLk6GJQsqaUBKTNV-3" target="WIyWlLk6GJQsqaUBKTNV-6" edge="1">
          <mxGeometry relative="1" as="geometry" />
        </mxCell>
        <mxCell id="WIyWlLk6GJQsqaUBKTNV-6" value="网下or可转债" style="rhombus;whiteSpace=wrap;html=1;shadow=0;fontFamily=Helvetica;fontSize=12;align=center;strokeWidth=1;spacing=6;spacingTop=-4;" parent="WIyWlLk6GJQsqaUBKTNV-1" vertex="1">
          <mxGeometry x="220" y="160" width="100" height="80" as="geometry" />
        </mxCell>
        <mxCell id="sILL8F6VpPjvglkUP5Wk-12" style="edgeStyle=orthogonalEdgeStyle;rounded=0;orthogonalLoop=1;jettySize=auto;html=1;endArrow=block;endFill=0;endSize=7;strokeWidth=1;entryX=0.5;entryY=0;entryDx=0;entryDy=0;" edge="1" parent="WIyWlLk6GJQsqaUBKTNV-1" target="sILL8F6VpPjvglkUP5Wk-17">
          <mxGeometry relative="1" as="geometry">
            <mxPoint x="135" y="270" as="targetPoint" />
            <mxPoint x="220" y="200" as="sourcePoint" />
          </mxGeometry>
        </mxCell>
        <mxCell id="sILL8F6VpPjvglkUP5Wk-13" value="网下" style="edgeLabel;html=1;align=center;verticalAlign=middle;resizable=0;points=[];" vertex="1" connectable="0" parent="sILL8F6VpPjvglkUP5Wk-12">
          <mxGeometry x="-0.2237" y="1" relative="1" as="geometry">
            <mxPoint as="offset" />
          </mxGeometry>
        </mxCell>
        <mxCell id="sILL8F6VpPjvglkUP5Wk-14" style="edgeStyle=orthogonalEdgeStyle;rounded=0;orthogonalLoop=1;jettySize=auto;html=1;endArrow=block;endFill=0;endSize=7;strokeWidth=1;entryX=0.5;entryY=0;entryDx=0;entryDy=0;" edge="1" parent="WIyWlLk6GJQsqaUBKTNV-1" target="sILL8F6VpPjvglkUP5Wk-21">
          <mxGeometry relative="1" as="geometry">
            <mxPoint x="405" y="267" as="targetPoint" />
            <mxPoint x="320" y="200" as="sourcePoint" />
          </mxGeometry>
        </mxCell>
        <mxCell id="sILL8F6VpPjvglkUP5Wk-15" value="可转债" style="edgeLabel;html=1;align=center;verticalAlign=middle;resizable=0;points=[];" vertex="1" connectable="0" parent="sILL8F6VpPjvglkUP5Wk-14">
          <mxGeometry x="-0.1711" y="2" relative="1" as="geometry">
            <mxPoint x="-7" as="offset" />
          </mxGeometry>
        </mxCell>
        <mxCell id="sILL8F6VpPjvglkUP5Wk-16" value="" style="group" vertex="1" connectable="0" parent="WIyWlLk6GJQsqaUBKTNV-1">
          <mxGeometry x="80" y="267" width="120" height="45" as="geometry" />
        </mxCell>
        <mxCell id="sILL8F6VpPjvglkUP5Wk-17" value="" style="rounded=1;whiteSpace=wrap;html=1;fontSize=12;glass=0;strokeWidth=1;shadow=0;fillColor=#d5e8d4;strokeColor=#82b366;" vertex="1" parent="sILL8F6VpPjvglkUP5Wk-16">
          <mxGeometry width="120" height="45" as="geometry" />
        </mxCell>
        <mxCell id="sILL8F6VpPjvglkUP5Wk-18" value="" style="aspect=fixed;html=1;points=[];align=center;image;fontSize=12;image=img/lib/azure2/general/Media_File.svg;" vertex="1" parent="sILL8F6VpPjvglkUP5Wk-16">
          <mxGeometry x="25" y="5.5" width="27.63" height="34" as="geometry" />
        </mxCell>
        <mxCell id="sILL8F6VpPjvglkUP5Wk-19" value="" style="aspect=fixed;html=1;points=[];align=center;image;fontSize=12;image=img/lib/azure2/general/Media_File.svg;" vertex="1" parent="sILL8F6VpPjvglkUP5Wk-16">
          <mxGeometry x="69" y="6" width="27.63" height="34" as="geometry" />
        </mxCell>
        <mxCell id="sILL8F6VpPjvglkUP5Wk-20" value="" style="group" vertex="1" connectable="0" parent="WIyWlLk6GJQsqaUBKTNV-1">
          <mxGeometry x="345" y="267" width="120" height="45" as="geometry" />
        </mxCell>
        <mxCell id="sILL8F6VpPjvglkUP5Wk-21" value="" style="rounded=1;whiteSpace=wrap;html=1;fontSize=12;glass=0;strokeWidth=1;shadow=0;fillColor=#d5e8d4;strokeColor=#82b366;" vertex="1" parent="sILL8F6VpPjvglkUP5Wk-20">
          <mxGeometry width="120" height="45" as="geometry" />
        </mxCell>
        <mxCell id="sILL8F6VpPjvglkUP5Wk-22" value="" style="aspect=fixed;html=1;points=[];align=center;image;fontSize=12;image=img/lib/azure2/general/Media_File.svg;" vertex="1" parent="sILL8F6VpPjvglkUP5Wk-20">
          <mxGeometry x="25" y="5.5" width="27.63" height="34" as="geometry" />
        </mxCell>
        <mxCell id="sILL8F6VpPjvglkUP5Wk-23" value="" style="aspect=fixed;html=1;points=[];align=center;image;fontSize=12;image=img/lib/azure2/general/Media_File.svg;" vertex="1" parent="sILL8F6VpPjvglkUP5Wk-20">
          <mxGeometry x="69" y="6" width="27.63" height="34" as="geometry" />
        </mxCell>
        <mxCell id="sILL8F6VpPjvglkUP5Wk-34" value="" style="group" vertex="1" connectable="0" parent="WIyWlLk6GJQsqaUBKTNV-1">
          <mxGeometry x="187.5" y="50" width="165" height="50" as="geometry" />
        </mxCell>
        <mxCell id="WIyWlLk6GJQsqaUBKTNV-3" value="" style="rounded=1;whiteSpace=wrap;html=1;fontSize=12;glass=0;strokeWidth=1;shadow=0;fillColor=#d5e8d4;strokeColor=#82b366;" parent="sILL8F6VpPjvglkUP5Wk-34" vertex="1">
          <mxGeometry width="165" height="50" as="geometry" />
        </mxCell>
        <mxCell id="sILL8F6VpPjvglkUP5Wk-29" value="" style="aspect=fixed;html=1;points=[];align=center;image;fontSize=12;image=img/lib/azure2/general/Media_File.svg;" vertex="1" parent="sILL8F6VpPjvglkUP5Wk-34">
          <mxGeometry x="12" y="9" width="27.63" height="34" as="geometry" />
        </mxCell>
        <mxCell id="sILL8F6VpPjvglkUP5Wk-30" value="" style="aspect=fixed;html=1;points=[];align=center;image;fontSize=12;image=img/lib/azure2/general/Media_File.svg;" vertex="1" parent="sILL8F6VpPjvglkUP5Wk-34">
          <mxGeometry x="51" y="9" width="27.63" height="34" as="geometry" />
        </mxCell>
        <mxCell id="sILL8F6VpPjvglkUP5Wk-31" value="" style="aspect=fixed;html=1;points=[];align=center;image;fontSize=12;image=img/lib/azure2/general/Media_File.svg;" vertex="1" parent="sILL8F6VpPjvglkUP5Wk-34">
          <mxGeometry x="90" y="9" width="27.63" height="34" as="geometry" />
        </mxCell>
        <mxCell id="sILL8F6VpPjvglkUP5Wk-32" value="" style="aspect=fixed;html=1;points=[];align=center;image;fontSize=12;image=img/lib/azure2/general/Media_File.svg;" vertex="1" parent="sILL8F6VpPjvglkUP5Wk-34">
          <mxGeometry x="128" y="8" width="27.63" height="34" as="geometry" />
        </mxCell>
        <mxCell id="sILL8F6VpPjvglkUP5Wk-46" style="edgeStyle=orthogonalEdgeStyle;rounded=0;jumpSize=8;orthogonalLoop=1;jettySize=auto;html=1;entryX=0.5;entryY=0;entryDx=0;entryDy=0;endArrow=block;endFill=0;endSize=7;" edge="1" parent="WIyWlLk6GJQsqaUBKTNV-1" source="sILL8F6VpPjvglkUP5Wk-39" target="sILL8F6VpPjvglkUP5Wk-45">
          <mxGeometry relative="1" as="geometry" />
        </mxCell>
        <mxCell id="sILL8F6VpPjvglkUP5Wk-49" value="Y" style="edgeLabel;html=1;align=center;verticalAlign=middle;resizable=0;points=[];" vertex="1" connectable="0" parent="sILL8F6VpPjvglkUP5Wk-46">
          <mxGeometry x="-0.2545" y="-2" relative="1" as="geometry">
            <mxPoint as="offset" />
          </mxGeometry>
        </mxCell>
        <mxCell id="sILL8F6VpPjvglkUP5Wk-78" style="edgeStyle=orthogonalEdgeStyle;rounded=0;jumpSize=8;orthogonalLoop=1;jettySize=auto;html=1;exitX=1;exitY=0.5;exitDx=0;exitDy=0;endArrow=block;endFill=0;endSize=7;" edge="1" parent="WIyWlLk6GJQsqaUBKTNV-1" source="sILL8F6VpPjvglkUP5Wk-39">
          <mxGeometry relative="1" as="geometry">
            <mxPoint x="400" y="400" as="targetPoint" />
          </mxGeometry>
        </mxCell>
        <mxCell id="sILL8F6VpPjvglkUP5Wk-39" value="&lt;span style=&quot;font-size: 11px&quot;&gt;深交所？&lt;/span&gt;" style="rhombus;whiteSpace=wrap;html=1;shadow=0;fontFamily=Helvetica;fontSize=12;align=center;strokeWidth=1;spacing=6;spacingTop=-4;" vertex="1" parent="WIyWlLk6GJQsqaUBKTNV-1">
          <mxGeometry x="90" y="360" width="100" height="80" as="geometry" />
        </mxCell>
        <mxCell id="sILL8F6VpPjvglkUP5Wk-42" value="" style="edgeStyle=orthogonalEdgeStyle;rounded=0;orthogonalLoop=1;jettySize=auto;html=1;endArrow=block;endFill=0;jumpSize=8;endSize=7;" edge="1" parent="WIyWlLk6GJQsqaUBKTNV-1" source="sILL8F6VpPjvglkUP5Wk-17" target="sILL8F6VpPjvglkUP5Wk-39">
          <mxGeometry relative="1" as="geometry" />
        </mxCell>
        <mxCell id="sILL8F6VpPjvglkUP5Wk-53" style="edgeStyle=orthogonalEdgeStyle;rounded=0;jumpSize=8;orthogonalLoop=1;jettySize=auto;html=1;entryX=0.5;entryY=0;entryDx=0;entryDy=0;endArrow=block;endFill=0;endSize=7;" edge="1" parent="WIyWlLk6GJQsqaUBKTNV-1" source="sILL8F6VpPjvglkUP5Wk-45">
          <mxGeometry relative="1" as="geometry">
            <mxPoint x="140" y="680" as="targetPoint" />
          </mxGeometry>
        </mxCell>
        <mxCell id="sILL8F6VpPjvglkUP5Wk-56" value="无证券代码" style="edgeLabel;html=1;align=center;verticalAlign=middle;resizable=0;points=[];" vertex="1" connectable="0" parent="sILL8F6VpPjvglkUP5Wk-53">
          <mxGeometry x="-0.2909" y="1" relative="1" as="geometry">
            <mxPoint x="-1" y="11" as="offset" />
          </mxGeometry>
        </mxCell>
        <mxCell id="sILL8F6VpPjvglkUP5Wk-67" style="edgeStyle=orthogonalEdgeStyle;rounded=0;jumpSize=8;orthogonalLoop=1;jettySize=auto;html=1;entryX=0;entryY=0.5;entryDx=0;entryDy=0;endArrow=block;endFill=0;endSize=7;" edge="1" parent="WIyWlLk6GJQsqaUBKTNV-1" source="sILL8F6VpPjvglkUP5Wk-45" target="sILL8F6VpPjvglkUP5Wk-75">
          <mxGeometry relative="1" as="geometry">
            <mxPoint x="355" y="550" as="targetPoint" />
          </mxGeometry>
        </mxCell>
        <mxCell id="sILL8F6VpPjvglkUP5Wk-74" value="有证券代码" style="edgeLabel;html=1;align=center;verticalAlign=middle;resizable=0;points=[];" vertex="1" connectable="0" parent="sILL8F6VpPjvglkUP5Wk-67">
          <mxGeometry x="-0.1273" y="-1" relative="1" as="geometry">
            <mxPoint as="offset" />
          </mxGeometry>
        </mxCell>
        <mxCell id="sILL8F6VpPjvglkUP5Wk-45" value="&lt;span style=&quot;font-size: 11px&quot;&gt;文件名校验&lt;/span&gt;" style="rhombus;whiteSpace=wrap;html=1;shadow=0;fontFamily=Helvetica;fontSize=12;align=center;strokeWidth=1;spacing=6;spacingTop=-4;" vertex="1" parent="WIyWlLk6GJQsqaUBKTNV-1">
          <mxGeometry x="90" y="510" width="100" height="80" as="geometry" />
        </mxCell>
        <mxCell id="sILL8F6VpPjvglkUP5Wk-81" style="edgeStyle=orthogonalEdgeStyle;rounded=0;jumpSize=8;orthogonalLoop=1;jettySize=auto;html=1;entryX=0.5;entryY=0;entryDx=0;entryDy=0;endArrow=block;endFill=0;endSize=7;" edge="1" parent="WIyWlLk6GJQsqaUBKTNV-1" source="sILL8F6VpPjvglkUP5Wk-66" target="sILL8F6VpPjvglkUP5Wk-80">
          <mxGeometry relative="1" as="geometry" />
        </mxCell>
        <mxCell id="sILL8F6VpPjvglkUP5Wk-66" value="报错" style="html=1;shadow=0;dashed=0;shape=mxgraph.bootstrap.rrect;rSize=5;strokeColor=#b85450;strokeWidth=1;fillColor=#f8cecc;whiteSpace=wrap;align=center;verticalAlign=middle;spacingLeft=0;fontStyle=0;fontSize=16;spacing=5;" vertex="1" parent="WIyWlLk6GJQsqaUBKTNV-1">
          <mxGeometry x="90" y="680" width="100" height="50" as="geometry" />
        </mxCell>
        <mxCell id="sILL8F6VpPjvglkUP5Wk-82" style="edgeStyle=orthogonalEdgeStyle;rounded=0;jumpSize=8;orthogonalLoop=1;jettySize=auto;html=1;endArrow=block;endFill=0;endSize=7;entryX=1.03;entryY=0.52;entryDx=0;entryDy=0;entryPerimeter=0;" edge="1" parent="WIyWlLk6GJQsqaUBKTNV-1" source="sILL8F6VpPjvglkUP5Wk-75" target="sILL8F6VpPjvglkUP5Wk-66">
          <mxGeometry relative="1" as="geometry">
            <mxPoint x="260" y="710" as="targetPoint" />
            <Array as="points">
              <mxPoint x="405" y="706" />
            </Array>
          </mxGeometry>
        </mxCell>
        <mxCell id="sILL8F6VpPjvglkUP5Wk-83" value="校验失败" style="edgeLabel;html=1;align=center;verticalAlign=middle;resizable=0;points=[];" vertex="1" connectable="0" parent="sILL8F6VpPjvglkUP5Wk-82">
          <mxGeometry x="0.6982" relative="1" as="geometry">
            <mxPoint x="16" y="-1" as="offset" />
          </mxGeometry>
        </mxCell>
        <mxCell id="sILL8F6VpPjvglkUP5Wk-75" value="字段校验" style="rounded=0;whiteSpace=wrap;html=1;" vertex="1" parent="WIyWlLk6GJQsqaUBKTNV-1">
          <mxGeometry x="345" y="520" width="120" height="60" as="geometry" />
        </mxCell>
        <mxCell id="sILL8F6VpPjvglkUP5Wk-76" style="edgeStyle=orthogonalEdgeStyle;rounded=0;jumpSize=8;orthogonalLoop=1;jettySize=auto;html=1;entryX=0.5;entryY=0;entryDx=0;entryDy=0;endArrow=block;endFill=0;endSize=7;" edge="1" parent="WIyWlLk6GJQsqaUBKTNV-1" source="sILL8F6VpPjvglkUP5Wk-21" target="sILL8F6VpPjvglkUP5Wk-75">
          <mxGeometry relative="1" as="geometry" />
        </mxCell>
        <mxCell id="sILL8F6VpPjvglkUP5Wk-80" value="end" style="ellipse;shape=doubleEllipse;whiteSpace=wrap;html=1;fillColor=#E6E6E6;" vertex="1" parent="WIyWlLk6GJQsqaUBKTNV-1">
          <mxGeometry x="90" y="797" width="100" height="60" as="geometry" />
        </mxCell>
      </root>
    </mxGraphModel>
  </diagram>
</mxfile>
